<svg width="20" height="20" viewBox="0 0 20 20" fill="none" xmlns="http://www.w3.org/2000/svg">
<path d="M13.7493 0C12.6831 0.0737496 11.4368 0.756246 10.7106 1.64499C10.0481 2.45124 9.5031 3.64873 9.7156 4.81247C10.8806 4.84872 12.0843 4.14998 12.7818 3.24623C13.4343 2.40499 13.9281 1.21499 13.7493 0Z" fill="black"/>
<path d="M17.9624 6.70843C16.9387 5.42468 15.5 4.67969 14.1412 4.67969C12.3475 4.67969 11.5887 5.53843 10.3425 5.53843C9.05749 5.53843 8.08125 4.68219 6.53001 4.68219C5.00627 4.68219 3.38378 5.61343 2.35503 7.20592C0.908792 9.44841 1.15629 13.6646 3.50003 17.2559C4.33877 18.5409 5.45877 19.9859 6.92376 19.9984C8.2275 20.0108 8.595 19.1621 10.3612 19.1534C12.1275 19.1434 12.4625 20.0096 13.7637 19.9959C15.23 19.9846 16.4112 18.3834 17.2499 17.0984C17.8512 16.1771 18.0749 15.7134 18.5412 14.6734C15.15 13.3821 14.6062 8.55967 17.9624 6.70843Z" fill="black"/>
</svg>
