<svg width="11" height="12" viewBox="0 0 11 12" fill="none" xmlns="http://www.w3.org/2000/svg">
<path d="M10.5928 5.57363L1.59423 0.0743393C1.51843 0.0280195 1.43167 0.00272733 1.34286 0.00106423C1.25405 -0.000598872 1.1664 0.0214273 1.08892 0.064877C1.01145 0.108327 0.946945 0.171631 0.902052 0.248279C0.85716 0.324926 0.833496 0.412149 0.833496 0.500976V11.4996C0.833496 11.5884 0.85716 11.6756 0.902052 11.7523C0.946945 11.8289 1.01145 11.8922 1.08892 11.9357C1.1664 11.9791 1.25405 12.0011 1.34286 11.9995C1.43167 11.9978 1.51843 11.9725 1.59423 11.9262L10.5928 6.4269C10.6659 6.38224 10.7262 6.31955 10.7681 6.24484C10.81 6.17014 10.832 6.08592 10.832 6.00027C10.832 5.91461 10.81 5.8304 10.7681 5.75569C10.7262 5.68098 10.6659 5.61829 10.5928 5.57363Z" fill="currentColor"/>
</svg>
