<svg width="16" height="16" viewBox="0 0 16 16" fill="none" xmlns="http://www.w3.org/2000/svg">
<path d="M13.5928 7.57363L4.59423 2.07434C4.51843 2.02802 4.43167 2.00273 4.34286 2.00106C4.25405 1.9994 4.1664 2.02143 4.08892 2.06488C4.01145 2.10833 3.94695 2.17163 3.90205 2.24828C3.85716 2.32493 3.8335 2.41215 3.8335 2.50098V13.4996C3.8335 13.5884 3.85716 13.6756 3.90205 13.7523C3.94695 13.8289 4.01145 13.8922 4.08892 13.9357C4.1664 13.9791 4.25405 14.0011 4.34286 13.9995C4.43167 13.9978 4.51843 13.9725 4.59423 13.9262L13.5928 8.4269C13.6659 8.38224 13.7262 8.31955 13.7681 8.24484C13.81 8.17014 13.832 8.08592 13.832 8.00027C13.832 7.91461 13.81 7.8304 13.7681 7.75569C13.7262 7.68098 13.6659 7.61829 13.5928 7.57363Z" fill="#1D2026"/>
</svg>
