<svg width="32" height="32" viewBox="0 0 32 32" fill="none" xmlns="http://www.w3.org/2000/svg">
<path d="M19.8024 9.7693L3.01889 0.124154C2.808 0.00102482 2.54267 0.00786535 2.33857 0.130995C2.12767 0.254124 1.99841 0.473021 1.99841 0.719281C1.99841 0.719281 2.00522 1.60855 2.01202 3.07242L14.2374 15.3649L19.8024 9.7693Z" fill="url(#paint0_linear_5524_15234)"/>
<path d="M2.01196 3.07422C2.03237 8.35512 2.0936 21.1743 2.12081 27.5565L14.2441 15.3667L2.01196 3.07422Z" fill="url(#paint1_linear_5524_15234)"/>
<path d="M29.4086 15.2898L19.8024 9.76953L14.2306 15.3651L20.5168 21.6857L29.4154 16.4733C29.6263 16.3501 29.7555 16.1244 29.7555 15.885C29.7555 15.6387 29.6195 15.413 29.4086 15.2898Z" fill="url(#paint2_linear_5524_15234)"/>
<path d="M2.11414 27.5541C2.12774 29.832 2.13455 31.289 2.13455 31.289C2.13455 31.5353 2.26381 31.761 2.47471 31.8773C2.6856 32.0004 2.94413 32.0004 3.15503 31.8773L20.5236 21.6917L14.2374 15.3711L2.11414 27.5541Z" fill="url(#paint3_linear_5524_15234)"/>
<defs>
<linearGradient id="paint0_linear_5524_15234" x1="1.99841" y1="7.70305" x2="19.8055" y2="7.70305" gradientUnits="userSpaceOnUse">
<stop stop-color="#63BE6B"/>
<stop offset="0.506" stop-color="#5BBC6A"/>
<stop offset="1" stop-color="#4AB96A"/>
</linearGradient>
<linearGradient id="paint1_linear_5524_15234" x1="2.0087" y1="15.3183" x2="14.237" y2="15.3183" gradientUnits="userSpaceOnUse">
<stop stop-color="#3EC6F2"/>
<stop offset="1" stop-color="#45AFE3"/>
</linearGradient>
<linearGradient id="paint2_linear_5524_15234" x1="14.2371" y1="15.732" x2="29.7539" y2="15.732" gradientUnits="userSpaceOnUse">
<stop stop-color="#FAA51A"/>
<stop offset="0.387" stop-color="#FAB716"/>
<stop offset="0.741" stop-color="#FAC412"/>
<stop offset="1" stop-color="#FAC80F"/>
</linearGradient>
<linearGradient id="paint3_linear_5524_15234" x1="2.11713" y1="23.6701" x2="20.5233" y2="23.6701" gradientUnits="userSpaceOnUse">
<stop stop-color="#EC3B50"/>
<stop offset="1" stop-color="#E7515B"/>
</linearGradient>
</defs>
</svg>
