<svg width="25" height="24" viewBox="0 0 25 24" fill="none" xmlns="http://www.w3.org/2000/svg">
<path d="M12.1484 20.25C12.1484 20.25 2.77344 15 2.77344 8.62501C2.77363 7.49826 3.16405 6.40635 3.87832 5.53493C4.5926 4.66351 5.58663 4.06636 6.69143 3.84501C7.79622 3.62367 8.94358 3.79179 9.93843 4.32079C10.9333 4.84979 11.7142 5.70702 12.1484 6.74673L12.1484 6.74673C12.5827 5.70702 13.3636 4.84979 14.3584 4.32079C15.3533 3.79179 16.5006 3.62367 17.6054 3.84501C18.7102 4.06636 19.7043 4.66351 20.4186 5.53493C21.1328 6.40635 21.5232 7.49826 21.5234 8.62501C21.5234 15 12.1484 20.25 12.1484 20.25Z" stroke="#1D2026" stroke-width="1.5" stroke-linecap="round" stroke-linejoin="round"/>
</svg>
