<svg width="25" height="24" viewBox="0 0 25 24" fill="none" xmlns="http://www.w3.org/2000/svg">
<path d="M7.64844 19.5C8.06265 19.5 8.39844 19.8358 8.39844 20.25C8.39844 20.6642 8.06265 21 7.64844 21C7.23422 21 6.89844 20.6642 6.89844 20.25C6.89844 19.8358 7.23422 19.5 7.64844 19.5Z" fill="#1D2026" stroke="#1D2026" stroke-width="1.5"/>
<path d="M17.3984 21.75C18.2269 21.75 18.8984 21.0784 18.8984 20.25C18.8984 19.4216 18.2269 18.75 17.3984 18.75C16.57 18.75 15.8984 19.4216 15.8984 20.25C15.8984 21.0784 16.57 21.75 17.3984 21.75Z" fill="#1D2026"/>
<path d="M4.11273 6.75H20.9342L18.4593 15.4121C18.3697 15.7255 18.1805 16.0012 17.9203 16.1975C17.66 16.3938 17.343 16.5 17.017 16.5H8.02989C7.70392 16.5 7.38683 16.3938 7.1266 16.1975C6.86636 16.0012 6.67715 15.7255 6.5876 15.4121L3.19671 3.54396C3.15194 3.38725 3.05733 3.24939 2.92721 3.15124C2.7971 3.05309 2.63855 3 2.47557 3H0.898438" stroke="#1D2026" stroke-width="1.5" stroke-linecap="round" stroke-linejoin="round"/>
</svg>
