<svg width="16" height="16" viewBox="0 0 16 16" fill="none" xmlns="http://www.w3.org/2000/svg">
<path opacity="0.2" d="M11.5005 5H2.50049C2.22435 5 2.00049 5.22386 2.00049 5.5V12.5C2.00049 12.7761 2.22435 13 2.50049 13H11.5005C11.7766 13 12.0005 12.7761 12.0005 12.5V5.5C12.0005 5.22386 11.7766 5 11.5005 5Z" fill="white"/>
<path d="M11.5005 5H2.50049C2.22435 5 2.00049 5.22386 2.00049 5.5V12.5C2.00049 12.7761 2.22435 13 2.50049 13H11.5005C11.7766 13 12.0005 12.7761 12.0005 12.5V5.5C12.0005 5.22386 11.7766 5 11.5005 5Z" fill="white"/>
<path d="M4.00098 3H13.501C13.6336 3 13.7608 3.05268 13.8545 3.14645C13.9483 3.24021 14.001 3.36739 14.001 3.5V11" stroke="white" stroke-width="1.2" stroke-linecap="round" stroke-linejoin="round"/>
</svg>
