<svg width="24" height="24" viewBox="0 0 24 24" fill="none" xmlns="http://www.w3.org/2000/svg">
<path d="M12 10.4746C12.8422 10.4746 13.5254 11.1578 13.5254 12C13.5254 12.8422 12.8422 13.5254 12 13.5254C11.1578 13.5254 10.4746 12.8422 10.4746 12C10.4746 11.1578 11.1578 10.4746 12 10.4746Z" fill="#1D2026" stroke="#1D2026" stroke-width="0.8"/>
<path d="M19 10.4746C19.8422 10.4746 20.5254 11.1578 20.5254 12C20.5254 12.8422 19.8422 13.5254 19 13.5254C18.1578 13.5254 17.4746 12.8422 17.4746 12C17.4746 11.1578 18.1578 10.4746 19 10.4746Z" fill="#1D2026" stroke="#1D2026" stroke-width="0.8"/>
<path d="M5 10.4746C5.84223 10.4746 6.52539 11.1578 6.52539 12C6.52539 12.8422 5.84223 13.5254 5 13.5254C4.15777 13.5254 3.47461 12.8422 3.47461 12C3.47461 11.1578 4.15777 10.4746 5 10.4746Z" fill="#1D2026" stroke="#1D2026" stroke-width="0.8"/>
</svg>
