<svg width="20" height="20" viewBox="0 0 20 20" fill="none" xmlns="http://www.w3.org/2000/svg">
<path d="M10 17.5C14.1421 17.5 17.5 14.1421 17.5 10C17.5 5.85786 14.1421 2.5 10 2.5C5.85786 2.5 2.5 5.85786 2.5 10C2.5 14.1421 5.85786 17.5 10 17.5Z" stroke="#FF6636" stroke-width="1.5" stroke-miterlimit="10"/>
<path d="M2.92773 7.5H17.0734" stroke="#FF6636" stroke-width="1.5" stroke-linecap="round" stroke-linejoin="round"/>
<path d="M2.92773 12.5H17.0734" stroke="#FF6636" stroke-width="1.5" stroke-linecap="round" stroke-linejoin="round"/>
<path d="M10 17.3005C11.7259 17.3005 13.125 14.0327 13.125 10.0018C13.125 5.97085 11.7259 2.70312 10 2.70312C8.27411 2.70312 6.875 5.97085 6.875 10.0018C6.875 14.0327 8.27411 17.3005 10 17.3005Z" stroke="#FF6636" stroke-width="1.5" stroke-miterlimit="10"/>
</svg>
