<svg width="228" height="160" viewBox="0 0 228 160" fill="none" xmlns="http://www.w3.org/2000/svg">
<rect width="228" height="160" fill="#F5F7FA"/>
<path opacity="0.2" d="M67.5039 99.3749L91.8888 74.99C92.2486 74.6302 92.6758 74.3448 93.1459 74.15C93.6161 73.9553 94.12 73.8551 94.6288 73.8551C95.1377 73.8551 95.6416 73.9553 96.1117 74.15C96.5819 74.3448 97.009 74.6302 97.3689 74.99L119.014 96.635C119.374 96.9948 119.801 97.2802 120.271 97.4749C120.741 97.6697 121.245 97.7699 121.754 97.7699C122.263 97.7699 122.767 97.6697 123.237 97.4749C123.707 97.2802 124.134 96.9948 124.494 96.635L134.514 86.615C134.874 86.2552 135.301 85.9698 135.771 85.775C136.241 85.5803 136.745 85.4801 137.254 85.4801C137.763 85.4801 138.267 85.5803 138.737 85.775C139.207 85.9698 139.634 86.2552 139.994 86.615L160.504 107.125L160.504 45.125C160.504 44.0973 160.096 43.1117 159.369 42.385C158.642 41.6583 157.657 41.25 156.629 41.25H71.3789C70.3512 41.25 69.3656 41.6583 68.6389 42.385C67.9122 43.1117 67.5039 44.0973 67.5039 45.125V99.3749Z" fill="#B7BAC7"/>
<path d="M156.629 41.25H71.3789C69.2388 41.25 67.5039 42.9849 67.5039 45.125V114.875C67.5039 117.015 69.2388 118.75 71.3789 118.75H156.629C158.769 118.75 160.504 117.015 160.504 114.875V45.125C160.504 42.9849 158.769 41.25 156.629 41.25Z" stroke="#B7BAC7" stroke-width="6" stroke-linecap="round" stroke-linejoin="round"/>
<path d="M67.5039 99.3753L91.8888 74.9904C92.2486 74.6306 92.6758 74.3452 93.1459 74.1504C93.6161 73.9557 94.12 73.8555 94.6288 73.8555C95.1377 73.8555 95.6416 73.9557 96.1117 74.1504C96.5819 74.3452 97.009 74.6306 97.3689 74.9904L119.014 96.6354C119.374 96.9952 119.801 97.2806 120.271 97.4754C120.741 97.6701 121.245 97.7703 121.754 97.7703C122.263 97.7703 122.767 97.6701 123.237 97.4754C123.707 97.2806 124.134 96.9952 124.494 96.6354L134.514 86.6154C134.874 86.2556 135.301 85.9702 135.771 85.7754C136.241 85.5807 136.745 85.4805 137.254 85.4805C137.763 85.4805 138.267 85.5807 138.737 85.7754C139.207 85.9702 139.634 86.2556 139.994 86.6154L160.504 107.125" stroke="#B7BAC7" stroke-width="6" stroke-linecap="round" stroke-linejoin="round"/>
<path d="M127.566 72.25C130.777 72.25 133.379 69.6477 133.379 66.4375C133.379 63.2273 130.777 60.625 127.566 60.625C124.356 60.625 121.754 63.2273 121.754 66.4375C121.754 69.6477 124.356 72.25 127.566 72.25Z" fill="#B7BAC7"/>
</svg>
