<svg width="20" height="20" viewBox="0 0 20 20" fill="none" xmlns="http://www.w3.org/2000/svg">
<path d="M19.995 20.0007V19.9999H20V12.6649C20 9.07664 19.2275 6.3125 15.0325 6.3125C13.0158 6.3125 11.6625 7.41916 11.11 8.46831H11.0517V6.6475H7.07422V19.9999H11.2159V13.3883C11.2159 11.6475 11.5459 9.96413 13.7017 9.96413C15.8258 9.96413 15.8575 11.9508 15.8575 13.4999V20.0007H19.995Z" fill="#FF6636"/>
<path d="M0.330078 6.64844H4.47671V20.0008H0.330078V6.64844Z" fill="#FF6636"/>
<path d="M2.40164 0C1.07582 0 0 1.07582 0 2.40164C0 3.72747 1.07582 4.82579 2.40164 4.82579C3.72747 4.82579 4.80329 3.72747 4.80329 2.40164C4.80246 1.07582 3.72663 0 2.40164 0V0Z" fill="#FF6636"/>
</svg>
