<svg width="228" height="160" viewBox="0 0 228 160" fill="none" xmlns="http://www.w3.org/2000/svg">
<rect width="228" height="160" fill="#F5F7FA"/>
<path opacity="0.2" d="M114.004 33.5C104.807 33.5 95.8168 36.2272 88.1699 41.3367C80.523 46.4461 74.563 53.7085 71.0435 62.2052C67.5241 70.702 66.6032 80.0516 68.3974 89.0717C70.1916 98.0918 74.6203 106.377 81.1235 112.88C87.6266 119.384 95.9121 123.812 104.932 125.607C113.952 127.401 123.302 126.48 131.799 122.96C140.295 119.441 147.558 113.481 152.667 105.834C157.777 98.1871 160.504 89.1968 160.504 80C160.504 73.8935 159.301 67.8469 156.964 62.2052C154.628 56.5636 151.202 51.4374 146.884 47.1195C142.567 42.8016 137.44 39.3764 131.799 37.0396C126.157 34.7027 120.11 33.5 114.004 33.5ZM106.254 95.5V64.5L129.504 80L106.254 95.5Z" fill="#B7BAC7"/>
<path d="M114.004 126.5C139.685 126.5 160.504 105.681 160.504 80C160.504 54.3188 139.685 33.5 114.004 33.5C88.3227 33.5 67.5039 54.3188 67.5039 80C67.5039 105.681 88.3227 126.5 114.004 126.5Z" stroke="#B7BAC7" stroke-width="6" stroke-miterlimit="10"/>
<path d="M129.5 80L106.25 64.5V95.5L129.5 80Z" stroke="#B7BAC7" stroke-width="6" stroke-linecap="round" stroke-linejoin="round"/>
</svg>
