<svg width="20" height="20" viewBox="0 0 20 20" fill="none" xmlns="http://www.w3.org/2000/svg">
<g clip-path="url(#clip0_4917_283)">
<path fill-rule="evenodd" clip-rule="evenodd" d="M16.6329 3.34203C14.8788 1.58582 12.5459 0.618217 10.0606 0.617188C4.93934 0.617188 0.7714 4.78501 0.769341 9.90762C0.768654 11.5452 1.19643 13.1437 2.00954 14.5527L0.691406 19.3672L5.61683 18.0751C6.97398 18.8155 8.50188 19.2056 10.0568 19.2061H10.0607C15.1813 19.2061 19.3497 15.0379 19.3517 9.91505C19.3527 7.43237 18.3872 5.09812 16.6329 3.34203ZM10.0606 17.637H10.0574C8.67171 17.6364 7.31273 17.264 6.12689 16.5605L5.84502 16.3931L2.9222 17.1599L3.70235 14.3102L3.51867 14.018C2.74562 12.7884 2.33741 11.3673 2.3381 9.90819C2.3397 5.65041 5.80405 2.1864 10.0637 2.1864C12.1263 2.18709 14.0653 2.99138 15.5233 4.45107C16.9813 5.91077 17.7837 7.851 17.783 9.91448C17.7812 14.1726 14.3171 17.637 10.0606 17.637ZM14.2965 11.8532C14.0644 11.737 12.923 11.1755 12.7101 11.0979C12.4975 11.0204 12.3425 10.9819 12.1879 11.2142C12.0331 11.4465 11.5882 11.9695 11.4527 12.1243C11.3172 12.2793 11.182 12.2987 10.9498 12.1825C10.7176 12.0663 9.96959 11.8211 9.08279 11.0302C8.39271 10.4146 7.92682 9.65436 7.79132 9.42204C7.65605 9.1895 7.79018 9.07597 7.89317 8.94826C8.14448 8.63618 8.39614 8.30899 8.4735 8.15415C8.55098 7.9992 8.51218 7.86359 8.45405 7.74743C8.39614 7.63127 7.93185 6.48858 7.73845 6.02361C7.54985 5.57111 7.35862 5.63222 7.21603 5.62512C7.08076 5.61837 6.92592 5.617 6.77108 5.617C6.61635 5.617 6.36481 5.67502 6.15195 5.90756C5.93921 6.13999 5.33954 6.70155 5.33954 7.84425C5.33954 8.98694 6.17141 10.0908 6.28745 10.2458C6.40349 10.4007 7.92453 12.7456 10.2533 13.7511C10.8072 13.9905 11.2395 14.1332 11.5768 14.2402C12.133 14.4169 12.6389 14.392 13.039 14.3322C13.4851 14.2655 14.4124 13.7706 14.606 13.2283C14.7995 12.686 14.7995 12.2213 14.7413 12.1243C14.6834 12.0275 14.5286 11.9695 14.2965 11.8532Z" fill="#FF6636"/>
</g>
<defs>
<clipPath id="clip0_4917_283">
<rect width="20" height="20" fill="white"/>
</clipPath>
</defs>
</svg>
