<svg width="20" height="20" viewBox="0 0 20 20" fill="none" xmlns="http://www.w3.org/2000/svg">
<path fill-rule="evenodd" clip-rule="evenodd" d="M17.8252 3.76034C18.6819 3.99106 19.3574 4.66641 19.5879 5.52318C20.0164 7.08812 19.9999 10.3501 19.9999 10.3501C19.9999 10.3501 19.9999 13.5955 19.5881 15.1606C19.3574 16.0172 18.682 16.6927 17.8252 16.9233C16.2602 17.3353 9.99996 17.3353 9.99996 17.3353C9.99996 17.3353 3.75609 17.3353 2.17467 16.907C1.3179 16.6762 0.642545 16.0007 0.411833 15.1441C0 13.5955 0 10.3337 0 10.3337C0 10.3337 0 7.08812 0.411833 5.52318C0.642392 4.66656 1.33438 3.97458 2.17452 3.74402C3.73961 3.33203 9.9998 3.33203 9.9998 3.33203C9.9998 3.33203 16.2602 3.33203 17.8252 3.76034ZM13.2126 10.3337L8.00675 13.3321V7.33539L13.2126 10.3337Z" fill="#FF6636"/>
</svg>
